<?xml version="1.0" encoding="UTF-8"?>
<svg id="Capa_1" xmlns="http://www.w3.org/2000/svg" version="1.1" viewBox="0 0 24 24">
  <!-- Generator: Adobe Illustrator 29.4.0, SVG Export Plug-In . SVG Version: 2.1.0 Build 152)  -->
  <defs>
    <style>
      .st0 {
        fill: #fff;
      }
    </style>
  </defs>
  <path class="st0" d="M12,16.47c1.65-1.33,2.9-2.62,3.74-3.85s1.26-2.39,1.26-3.48c0-1.5-.47-2.73-1.4-3.7s-2.13-1.45-3.6-1.45-2.67.48-3.6,1.45-1.4,2.2-1.4,3.7c0,1.08.42,2.24,1.26,3.48s2.09,2.52,3.74,3.85ZM12,19c-2.35-1.73-4.1-3.42-5.26-5.05-1.16-1.63-1.74-3.23-1.74-4.8,0-2.08.65-3.8,1.95-5.14s2.98-2.01,5.05-2.01,3.75.67,5.05,2.01,1.95,3.05,1.95,5.14c0,1.57-.58,3.17-1.74,4.8s-2.91,3.32-5.26,5.05ZM12,11c.55,0,1.02-.2,1.41-.59s.59-.86.59-1.41-.2-1.02-.59-1.41-.86-.59-1.41-.59-1.02.2-1.41.59-.59.86-.59,1.41.2,1.02.59,1.41.86.59,1.41.59ZM5,22v-2h14v2H5Z"/>
</svg>