<?xml version="1.0" encoding="UTF-8"?>
<svg id="Capa_1" xmlns="http://www.w3.org/2000/svg" version="1.1" viewBox="0 0 24 24">
  <!-- Generator: Adobe Illustrator 29.4.0, SVG Export Plug-In . SVG Version: 2.1.0 Build 152)  -->
  <defs>
    <style>
      .st0 {
        fill: #fff;
      }
    </style>
  </defs>
  <path class="st0" d="M15.3,16.7l1.4-1.4-3.7-3.7v-4.6h-2v5.4l4.3,4.3ZM12,22c-1.38,0-2.68-.26-3.9-.79s-2.28-1.24-3.18-2.14-1.61-1.96-2.14-3.18-.79-2.52-.79-3.9.26-2.68.79-3.9,1.24-2.28,2.14-3.18,1.96-1.61,3.18-2.14,2.52-.79,3.9-.79,2.68.26,3.9.79,2.28,1.24,3.18,2.14,1.61,1.96,2.14,3.18.79,2.52.79,3.9-.26,2.68-.79,3.9-1.24,2.28-2.14,3.18-1.96,1.61-3.18,2.14-2.52.79-3.9.79ZM12,20c2.22,0,4.1-.78,5.66-2.34,1.56-1.56,2.34-3.45,2.34-5.66s-.78-4.1-2.34-5.66-3.45-2.34-5.66-2.34-4.1.78-5.66,2.34c-1.56,1.56-2.34,3.45-2.34,5.66s.78,4.1,2.34,5.66c1.56,1.56,3.45,2.34,5.66,2.34Z"/>
</svg>