<?xml version="1.0" encoding="UTF-8"?>
<svg id="Capa_1" xmlns="http://www.w3.org/2000/svg" version="1.1" viewBox="0 0 24 24">
  <!-- Generator: Adobe Illustrator 29.4.0, SVG Export Plug-In . SVG Version: 2.1.0 Build 152)  -->
  <defs>
    <style>
      .st0 {
        fill: #fff;
      }
    </style>
  </defs>
  <path class="st0" d="M12,12c.55,0,1.02-.2,1.41-.59.39-.39.59-.86.59-1.41s-.2-1.02-.59-1.41-.86-.59-1.41-.59-1.02.2-1.41.59-.59.86-.59,1.41.2,1.02.59,1.41c.39.39.86.59,1.41.59ZM12,19.35c2.03-1.87,3.54-3.56,4.53-5.09s1.48-2.88,1.48-4.06c0-1.82-.58-3.3-1.74-4.46s-2.58-1.74-4.26-1.74-3.1.58-4.26,1.74-1.74,2.65-1.74,4.46c0,1.18.49,2.54,1.48,4.06s2.49,3.22,4.53,5.09ZM12,22c-2.68-2.28-4.69-4.4-6.01-6.36s-1.99-3.77-1.99-5.44c0-2.5.8-4.49,2.41-5.98,1.61-1.48,3.47-2.23,5.59-2.23s3.98.74,5.59,2.23,2.41,3.48,2.41,5.98c0,1.67-.66,3.48-1.99,5.44s-3.33,4.08-6.01,6.36Z"/>
</svg>